<svg width="48" height="48" viewBox="0 0 48 48" fill="none" xmlns="http://www.w3.org/2000/svg">
<path d="M24 0C10.766 0 0 10.766 0 24C0 37.234 10.766 48 24 48C37.234 48 48 37.234 48 24C48 10.766 37.234 0 24 0Z" fill="#00BCD4"/>
<path d="M14 38H34C35.106 38 36 37.104 36 36C36 34.896 35.106 34 34 34H14C12.894 34 12 34.896 12 36C12 37.104 12.894 38 14 38Z" fill="white"/>
<path d="M22.9395 29.56C23.2315 29.854 23.6155 30 23.9995 30C24.3835 30 24.7675 29.854 25.0595 29.56L31.5595 23.06C32.5035 22.12 31.8375 20.5 30.4995 20.5H25.9995V11.5C25.9995 10.396 25.1055 9.5 23.9995 9.5C22.8935 9.5 21.9995 10.396 21.9995 11.5V20.5H17.4995C16.1615 20.5 15.4955 22.12 16.4395 23.06L22.9395 29.56Z" fill="white"/>
<path d="M24 0C10.766 0 0 10.766 0 24C0 37.234 10.766 48 24 48V38H14C12.894 38 12 37.104 12 36C12 34.896 12.894 34 14 34H24V30C23.616 30 23.232 29.854 22.94 29.56L16.44 23.06C15.496 22.12 16.162 20.5 17.5 20.5H22V11.5C22 10.396 22.894 9.5 24 9.5V0Z" fill="#00A4B9"/>
<path d="M24 34H14C12.894 34 12 34.896 12 36C12 37.104 12.894 38 14 38H24V34Z" fill="#DEDEDE"/>
<path d="M23.9995 9.5C22.8935 9.5 21.9995 10.396 21.9995 11.5V20.5H17.4995C16.1615 20.5 15.4955 22.12 16.4395 23.06L22.9395 29.56C23.2315 29.854 23.6155 30 23.9995 30V9.5Z" fill="#DEDEDE"/>
</svg>
