<svg width="38" height="34" viewBox="0 0 38 34" fill="none" xmlns="http://www.w3.org/2000/svg">
<path d="M31.951 21.2843V28.9135H5.30496V21.2843H0.183594V31.1562C0.183594 32.3939 1.32846 33.3977 2.74809 33.3977H34.5079C35.9263 33.3977 37.0724 32.395 37.0724 31.1562V21.2843H31.951Z" fill="#4A5BE5"/>
<path d="M18.158 20.5281L10.8258 12.7685C10.8258 12.7685 9.71015 11.846 10.9199 11.846C12.1296 11.846 15.0516 11.846 15.0516 11.846C15.0516 11.846 15.0516 11.2255 15.0516 10.2685C15.0516 7.54011 15.0516 2.57464 15.0516 0.550357C15.0516 0.550357 14.8875 0 15.8339 0C16.788 0 20.9667 0 21.6498 0C22.3316 0 22.3164 0.463458 22.3164 0.463458C22.3164 2.42647 22.3164 7.5635 22.3164 10.2028C22.3164 11.0584 22.3164 11.6132 22.3164 11.6132C22.3164 11.6132 24.6595 11.6132 26.1301 11.6132C27.598 11.6132 26.4926 12.5791 26.4926 12.5791C26.4926 12.5791 20.2544 19.8318 19.3843 20.5927C18.7584 21.1442 18.158 20.5281 18.158 20.5281Z" fill="#4A5BE5"/>
</svg>
