<svg width="12" height="6" viewBox="0 0 12 6" fill="none" xmlns="http://www.w3.org/2000/svg">
<path d="M11.1738 1.64737C11.1742 1.75779 11.1498 1.8669 11.1025 1.96666C11.0552 2.06643 10.9861 2.15433 10.9003 2.22389L6.46556 5.79389C6.33331 5.90261 6.16742 5.96204 5.99622 5.96204C5.82501 5.96204 5.65912 5.90261 5.52687 5.79389L1.09209 2.09824C0.941143 1.97278 0.846221 1.7925 0.828201 1.59705C0.810181 1.40161 0.87054 1.20701 0.995999 1.05607C1.12146 0.905125 1.30174 0.810203 1.49719 0.792182C1.69263 0.774163 1.88723 0.834521 2.03817 0.95998L5.99991 4.26389L9.96165 1.07085C10.0701 0.980467 10.2023 0.923053 10.3424 0.905404C10.4825 0.887753 10.6247 0.910605 10.7522 0.971255C10.8797 1.0319 10.9872 1.12781 11.0619 1.24763C11.1366 1.36746 11.1755 1.50617 11.1738 1.64737Z" fill="black"/>
</svg>
