<svg width="48" height="48" viewBox="0 0 48 48" fill="none" xmlns="http://www.w3.org/2000/svg">
<path d="M24 48C37.2548 48 48 37.2548 48 24C48 10.7452 37.2548 0 24 0C10.7452 0 0 10.7452 0 24C0 37.2548 10.7452 48 24 48Z" fill="#FFCE00"/>
<path d="M48 23.9986C48 22.2807 47.8194 20.605 47.4764 18.9893L35.2703 6.7832L7.21875 32.495L15.4132 40.6894L14.7408 41.2356L21.3602 47.855C22.2271 47.9499 23.1079 47.9986 24 47.9986C37.2548 47.9986 48 37.2535 48 23.9986Z" fill="#FFA300"/>
<path d="M38.3514 33.6013H9.64856C7.86656 33.6013 6.42188 32.1567 6.42188 30.3746V18.6974C6.42188 16.9154 7.86647 15.4707 9.64856 15.4707H38.3514C40.1334 15.4707 41.5781 16.9153 41.5781 18.6974V30.3746C41.5781 32.1566 40.1335 33.6013 38.3514 33.6013Z" fill="#636978"/>
<path d="M38.3519 15.4707H24.0117V33.6013H38.3519C40.134 33.6013 41.5786 32.1567 41.5786 30.3747V18.6974C41.5786 16.9153 40.134 15.4707 38.3519 15.4707Z" fill="#414952"/>
<path d="M12.7285 29.2637H35.2692V33.6007H12.7285V29.2637Z" fill="#414952"/>
<path d="M24.0117 29.2637H35.2708V33.6007H24.0117V29.2637Z" fill="#23272B"/>
<path d="M12.7285 6.7832H35.2692V19.5502H12.7285V6.7832Z" fill="#414952"/>
<path d="M24.0117 6.7832H35.2708V19.5502H24.0117V6.7832Z" fill="#23272B"/>
<path d="M30.0022 12.8591H17.9962C16.8948 12.8591 16.002 11.9663 16.002 10.8649V6.7832H31.9965V10.8649C31.9965 11.9663 31.1036 12.8591 30.0022 12.8591Z" fill="#555A66"/>
<path d="M24.0117 6.7832V12.8591H30.0034C31.1048 12.8591 31.9976 11.9663 31.9976 10.8649V6.7832H24.0117Z" fill="#333940"/>
<path d="M9.49219 25.7402H38.508V28.1461H9.49219V25.7402Z" fill="#555A66"/>
<path d="M24.0117 25.7402H38.5083V28.1461H24.0117V25.7402Z" fill="#333940"/>
<path d="M10.8939 24.3719C11.6681 24.3719 12.2957 23.7443 12.2957 22.9701C12.2957 22.1959 11.6681 21.5684 10.8939 21.5684C10.1198 21.5684 9.49219 22.1959 9.49219 22.9701C9.49219 23.7443 10.1198 24.3719 10.8939 24.3719Z" fill="#64E1DC"/>
<path d="M14.601 24.3719C15.3751 24.3719 16.0027 23.7443 16.0027 22.9701C16.0027 22.1959 15.3751 21.5684 14.601 21.5684C13.8268 21.5684 13.1992 22.1959 13.1992 22.9701C13.1992 23.7443 13.8268 24.3719 14.601 24.3719Z" fill="#64E1DC"/>
<path d="M14.7402 29.2637H33.2586V41.2365H14.7402V29.2637Z" fill="white"/>
<path d="M24.0117 29.2637H33.2597V41.2365H24.0117V29.2637Z" fill="#E9EDF5"/>
</svg>
