<svg width="37" height="32" viewBox="0 0 37 32" fill="none" xmlns="http://www.w3.org/2000/svg">
<path d="M34.1222 7.89234H30.198V1.33306C30.198 0.707183 29.6458 0.199707 28.9646 0.199707H8.03536C7.35426 0.199707 6.802 0.707117 6.802 1.33306V7.89234H2.87776C1.29095 7.89234 0 9.07869 0 10.5368V21.9389C0 23.3971 1.29095 24.5833 2.87776 24.5833H6.80222V30.6671C6.80222 31.293 7.3544 31.8004 8.03558 31.8004H28.9644C29.6455 31.8004 30.1978 31.293 30.1978 30.6671V24.5833H34.1222C35.709 24.5833 37 23.3971 37 21.9389V10.5368C37 9.07875 35.709 7.89234 34.1222 7.89234ZM9.26864 2.46642H27.7313V7.89234H9.26864V2.46642ZM27.7311 29.5337H9.26893C9.26893 29.3123 9.26893 20.5355 9.26893 20.2616H27.7311C27.7311 20.5424 27.7311 29.3208 27.7311 29.5337ZM28.9646 14.5472H25.8252C25.1441 14.5472 24.5918 14.0398 24.5918 13.4139C24.5918 12.7879 25.144 12.2805 25.8252 12.2805H28.9646C29.6457 12.2805 30.198 12.7879 30.198 13.4139C30.198 14.0398 29.6458 14.5472 28.9646 14.5472Z" fill="#868686"/>
</svg>
